<?xml version="1.0" standalone="no"?>
<!DOCTYPE svg PUBLIC "-//W3C//DTD SVG 20010904//EN"
 "http://www.w3.org/TR/2001/REC-SVG-20010904/DTD/svg10.dtd">
<svg version="1.0" xmlns="http://www.w3.org/2000/svg"
 width="54.000000pt" height="56.000000pt" viewBox="0 0 54.000000 56.000000"
 preserveAspectRatio="xMidYMid meet">

<g transform="translate(0.000000,56.000000) scale(0.100000,-0.100000)"
fill="#000000" stroke="none">
<path d="M0 280 l0 -280 270 0 270 0 0 280 0 280 -270 0 -270 0 0 -280z m304
116 c5 -18 6 -18 31 -2 l27 18 -7 -31 -7 -31 59 0 58 -1 -45 -39 c-44 -38 -44
-39 -25 -54 19 -15 19 -15 -7 -16 -16 0 -28 -1 -28 -2 0 -2 9 -27 20 -57 12
-29 19 -55 17 -57 -2 -3 -27 11 -55 31 l-52 35 -6 -25 c-8 -31 -20 -32 -27 -4
-5 20 -8 20 -51 -16 -50 -41 -53 -37 -32 43 l14 52 -31 0 c-27 1 -29 2 -14 11
26 15 21 24 -30 58 l-48 31 68 0 c74 0 72 -2 49 59 -4 10 2 9 21 -3 l25 -17
17 58 18 58 18 -40 c10 -22 20 -49 23 -59z"/>
</g>
</svg>
